<?xml version="1.0" encoding="UTF-8"?>
<svg id="c" xmlns="http://www.w3.org/2000/svg" version="1.1" viewBox="0 0 1024 1024">
  <!-- Generator: Adobe Illustrator 29.4.0, SVG Export Plug-In . SVG Version: 2.1.0 Build 152)  -->
  <defs>
    <style>
      .st0 {
        fill: #bfe6ff;
      }

      .st1 {
        fill: #282a35;
      }
    </style>
  </defs>
  <path class="st0" d="M825.5,86v852c0,35.46-28.74,64.2-64.2,64.2h-54c-35.46,0-64.2-28.74-64.2-64.2V310.77c-8.95,4.75-19.16,7.43-30,7.43h-54c-10.84,0-21.05-2.68-30-7.43v627.23c0,35.46-28.74,64.2-64.2,64.2h-54c-18.61,0-35.37-7.92-47.1-20.57-11.73,12.65-28.49,20.57-47.1,20.57h-54c-35.46,0-64.2-28.74-64.2-64.2v-396c0-35.46,28.74-64.2,64.2-64.2h54c10.84,0,21.05,2.68,30,7.43V86c0-35.46,28.74-64.2,64.2-64.2h54c18.61,0,35.37,7.92,47.1,20.57,11.73-12.65,28.49-20.57,47.1-20.57h54c18.61,0,35.37,7.92,47.1,20.57,11.73-12.65,28.49-20.57,47.1-20.57h54c35.46,0,64.2,28.74,64.2,64.2h0Z"/>
  <path class="st1" d="M761.3,56h-54c-16.57,0-30,13.43-30,30v111.11h-34.2v-111.11c0-16.57-13.43-30-30-30h-54c-16.57,0-30,13.43-30,30v4.2h-34.2v-4.2c0-16.57-13.43-30-30-30h-54c-16.57,0-30,13.43-30,30v529.11h-34.2v-73.11c0-16.57-13.43-30-30-30h-54c-16.57,0-30,13.43-30,30v396c0,16.57,13.43,30,30,30h54c16.57,0,30-13.43,30-30v-71.59h34.2v71.59c0,16.57,13.43,30,30,30h54c16.57,0,30-13.43,30-30V142.89h34.2v111.11c0,16.57,13.43,30,30,30h54c16.57,0,30-13.43,30-30v-4.2h34.2v688.2c0,16.57,13.43,30,30,30h54c16.57,0,30-13.43,30-30V86c0-16.57-13.43-30-30-30ZM380.9,813.72h-34.2v-145.92h34.2v145.92Z"/>
</svg>